<svg id="Calque_1" data-name="Calque 1" xmlns="http://www.w3.org/2000/svg" viewBox="0 0 126.18 132.2"><defs><style>.cls-1{fill:none;stroke:#000;stroke-miterlimit:10;stroke-width:11px;}</style></defs><path class="cls-1" d="M162.44,206V189.08a70,70,0,0,1-12.05,1.12c-31.75,0-57.5-22.67-57.5-50.63S118.64,89,150.39,89c29.9,0,55.19,24.82,57.5,50.62C209,151.4,205,161.21,202,167a112.9,112.9,0,0,1-10.88,15A114.47,114.47,0,0,1,162.44,206Z" transform="translate(-87.39 -83.45)"/><rect x="32.17" y="50.41" width="11.62" height="11.62"/><rect x="57.28" y="50.41" width="11.62" height="11.62"/><rect x="82.39" y="50.41" width="11.62" height="11.62"/></svg>