<?xml version="1.0" standalone="no"?>
<!DOCTYPE svg PUBLIC "-//W3C//DTD SVG 20010904//EN"
 "http://www.w3.org/TR/2001/REC-SVG-20010904/DTD/svg10.dtd">
<svg version="1.0" xmlns="http://www.w3.org/2000/svg"
 width="500.000000pt" height="500.000000pt" viewBox="0 0 500.000000 500.000000"
 preserveAspectRatio="xMidYMid meet">

<g transform="translate(0.000000,500.000000) scale(0.100000,-0.100000)"
fill="#000000" stroke="none">
<path d="M245 4915 c-98 -34 -175 -185 -175 -342 0 -144 53 -432 114 -619 30
-93 66 -212 81 -264 14 -53 56 -157 95 -237 119 -242 134 -327 150 -823 12
-383 41 -560 136 -853 61 -187 90 -260 184 -457 173 -367 249 -602 294 -905
13 -87 36 -306 36 -342 0 -8 15 -13 40 -13 37 0 40 2 40 28 0 81 -33 363 -55
467 -14 66 -25 125 -25 131 0 7 34 13 98 16 119 7 270 53 417 129 122 62 172
75 355 95 80 8 187 21 239 29 152 23 125 35 -34 15 -44 -5 -161 -16 -261 -24
-191 -17 -241 -29 -354 -86 -138 -70 -338 -125 -429 -118 l-43 3 -58 165 c-62
180 -109 294 -193 470 -61 128 -182 448 -221 583 -23 80 -76 412 -76 478 0 24
5 30 39 39 71 19 143 29 321 45 154 14 303 31 436 51 l42 6 55 -103 c31 -57
69 -141 86 -187 33 -90 104 -206 153 -247 48 -41 99 -63 174 -76 38 -6 70 -13
72 -14 2 -2 -24 -110 -58 -240 -33 -130 -59 -242 -57 -248 4 -13 77 210 126
387 17 60 32 110 33 111 2 1 24 14 50 28 76 44 137 143 138 223 l0 41 58 0
c106 0 209 74 235 171 6 23 15 42 20 42 5 0 23 -10 40 -22 22 -16 50 -23 92
-26 151 -9 267 128 295 349 5 45 12 84 15 87 2 3 44 -10 92 -27 48 -18 97 -34
108 -37 50 -13 -30 36 -115 72 -88 36 -90 38 -90 70 0 30 6 36 60 66 33 18 60
39 60 46 0 10 -6 12 -17 7 -66 -26 -103 -38 -107 -34 -3 2 -11 64 -17 137
l-13 133 47 47 c56 57 63 87 10 43 -20 -17 -38 -29 -39 -28 -1 1 5 34 13 72
16 75 13 259 -5 277 -6 6 -12 -25 -16 -81 -4 -49 -16 -124 -26 -165 -35 -130
-38 -188 -23 -340 14 -140 13 -383 -2 -419 -6 -14 -12 -7 -32 35 -58 125 -125
170 -218 147 -88 -22 -150 -88 -170 -177 -12 -58 -23 -22 -34 113 -6 72 -19
178 -31 235 -22 117 -23 115 49 124 103 14 121 18 121 27 0 11 2 11 -99 -1
-46 -6 -85 -9 -87 -8 -1 2 -15 93 -29 203 -14 110 -38 244 -52 298 -14 56 -22
102 -17 107 11 11 120 40 151 40 12 0 25 5 28 10 9 14 -30 12 -121 -5 -48 -9
-82 -11 -87 -6 -11 11 26 79 68 130 57 67 180 111 255 91 74 -20 235 -126 296
-195 116 -132 128 -159 154 -382 22 -185 28 -214 72 -315 17 -40 53 -143 80
-228 84 -268 90 -274 230 -269 l91 4 13 -60 c7 -33 24 -113 38 -178 14 -65 30
-182 36 -260 15 -193 20 -227 31 -227 10 0 4 210 -12 379 -5 58 -23 163 -41
235 -31 125 -31 130 -13 140 38 22 296 272 360 348 75 90 69 88 175 30 39 -21
98 -68 149 -119 46 -46 86 -81 89 -78 12 11 -27 64 -103 141 -59 60 -97 89
-142 110 -35 15 -63 31 -63 35 0 16 71 93 120 130 66 50 199 117 295 150 90
31 233 33 312 6 66 -23 113 -74 113 -122 0 -46 -31 -80 -141 -155 -104 -71
-129 -102 -209 -260 -33 -63 -92 -158 -131 -210 -40 -52 -91 -124 -114 -160
-63 -96 -158 -293 -190 -390 -38 -116 -72 -183 -91 -176 -10 4 -14 -2 -14 -23
0 -20 -10 -37 -31 -55 -17 -14 -35 -26 -41 -26 -10 0 -6 44 8 98 10 36 -15 26
-31 -12 -8 -19 -17 -51 -21 -73 -5 -32 -13 -43 -57 -70 -74 -45 -418 -332
-512 -427 -91 -92 -223 -262 -261 -338 -31 -61 -58 -168 -79 -309 -13 -95 -13
-122 -1 -235 8 -71 18 -202 21 -292 l7 -162 46 0 45 0 -6 193 c-4 105 -12 226
-18 267 -20 133 11 376 62 485 37 80 164 242 278 356 153 152 417 368 514 419
141 75 196 150 276 371 77 216 162 367 315 563 30 38 80 118 111 178 66 128
96 165 178 220 169 115 210 206 144 323 -50 89 -164 130 -337 123 -90 -4 -119
-10 -205 -43 -163 -61 -264 -117 -329 -181 -16 -16 -71 -81 -122 -145 -117
-146 -362 -385 -423 -412 -59 -26 -152 -34 -169 -15 -14 18 -112 306 -112 332
0 10 -16 54 -36 98 -56 125 -74 200 -83 348 -5 77 -15 153 -24 177 -38 102
-189 279 -277 323 -25 12 -71 40 -103 62 -143 96 -304 62 -442 -96 l-50 -57
-72 37 c-62 32 -80 37 -140 36 -152 -1 -303 -94 -383 -236 l-32 -56 -28 15
c-39 20 -144 19 -206 -2 -74 -24 -178 -134 -224 -235 -19 -43 -38 -77 -41 -78
-5 0 -111 245 -160 370 -72 185 -181 507 -195 575 -9 44 -24 123 -35 175 -36
181 -127 315 -242 358 -66 25 -143 28 -202 7z m213 -108 c50 -32 105 -111 131
-187 10 -30 29 -113 41 -185 34 -202 180 -624 321 -928 79 -171 115 -269 105
-286 -3 -4 -34 -14 -68 -21 -35 -6 -123 -34 -196 -61 -74 -27 -153 -52 -176
-55 l-42 -6 -13 73 c-18 101 -61 224 -111 316 -22 41 -39 77 -38 78 2 2 45 18
96 35 50 18 92 36 92 41 0 6 -106 -19 -187 -45 -14 -4 -23 -3 -23 3 0 5 29 19
64 29 65 20 230 103 242 123 13 22 -7 18 -102 -25 -111 -49 -211 -83 -219 -74
-4 3 -30 85 -59 182 -60 199 -63 180 34 211 72 23 225 135 185 135 -10 0 -88
-42 -115 -60 -27 -19 -139 -60 -164 -60 -19 0 -31 39 -60 200 -39 214 -49 298
-43 364 8 89 41 169 84 206 34 31 39 32 108 28 58 -3 80 -9 113 -31z m1581
-867 c51 -14 160 -89 176 -121 31 -59 67 -233 101 -488 19 -146 41 -306 49
-356 8 -49 15 -117 15 -151 0 -33 9 -96 20 -139 11 -43 20 -79 20 -80 0 -1
-21 9 -47 22 -40 21 -57 24 -103 18 -66 -7 -132 -37 -160 -72 -11 -15 -22 -24
-25 -21 -8 8 -85 177 -160 353 -40 94 -98 251 -130 350 -75 238 -93 290 -126
353 -26 50 -27 55 -14 92 28 79 105 169 175 205 33 17 125 43 155 44 11 1 35
-3 54 -9z m-479 -283 c75 -29 73 -25 166 -320 102 -323 202 -574 339 -847 25
-49 45 -92 45 -95 0 -2 -20 9 -44 27 -51 36 -123 47 -180 28 -44 -14 -119 -96
-141 -154 -16 -40 -16 -48 -1 -106 9 -34 26 -76 38 -92 l21 -31 -26 18 c-39
25 -120 151 -152 236 -40 105 -61 145 -178 335 -128 209 -221 374 -253 451
-17 42 -24 51 -24 33 -1 -24 -1 -24 -15 -6 -8 11 -24 44 -35 74 -18 46 -19 57
-7 71 7 9 23 52 36 96 37 132 120 246 206 286 55 25 130 24 205 -4z m-447
-547 c15 -28 41 -59 57 -68 19 -11 37 -35 50 -68 12 -28 59 -118 105 -199 47
-82 83 -150 81 -152 -3 -3 -169 -20 -476 -48 -96 -8 -210 -24 -253 -34 -56
-13 -80 -15 -82 -7 -2 6 -5 122 -8 258 l-4 247 69 15 c39 9 118 37 176 62 59
26 134 55 167 64 70 21 69 21 118 -70z m1647 -309 c33 -35 90 -151 90 -185 0
-22 -66 -98 -107 -123 -50 -30 -106 -30 -163 1 -54 28 -67 51 -75 131 -14 125
59 214 174 215 38 0 49 -5 81 -39z m-406 -212 c70 -32 50 -159 -36 -222 -33
-25 -120 -35 -134 -16 -5 8 -23 42 -38 75 -38 82 -32 105 37 144 56 32 125 40
171 19z m93 -121 c-2 -28 -14 -62 -28 -82 -25 -37 -91 -78 -144 -91 -39 -9
-27 2 37 34 74 37 110 92 116 173 4 53 6 59 14 38 5 -14 8 -46 5 -72z m-417
-61 c13 -7 35 -28 48 -47 34 -50 28 -142 -11 -194 -38 -49 -99 -79 -164 -80
-67 -1 -98 27 -119 107 -13 50 -13 60 1 94 23 54 59 98 97 116 39 20 113 22
148 4z m125 -164 c-4 -32 -13 -74 -21 -93 -17 -41 -67 -96 -106 -116 -33 -17
-112 -18 -159 -3 -57 19 -52 25 20 21 51 -3 77 0 102 13 92 48 149 123 149
198 0 21 5 37 11 37 8 0 9 -18 4 -57z"/>
<path d="M345 4770 c-4 -6 5 -10 21 -10 63 0 140 -122 167 -262 6 -32 15 -58
20 -58 8 0 7 12 -15 118 -17 78 -67 172 -107 199 -36 24 -75 30 -86 13z"/>
<path d="M568 4117 c-38 -18 -68 -38 -68 -44 0 -12 26 -3 133 47 28 14 37 31
15 29 -7 0 -43 -15 -80 -32z"/>
<path d="M744 3696 c-30 -14 -54 -36 -37 -36 11 0 73 38 73 45 0 6 0 7 -36 -9z"/>
<path d="M1858 3877 c-67 -39 -98 -65 -98 -83 0 -9 17 -1 43 19 23 17 64 43
90 57 46 24 60 40 35 40 -7 0 -39 -15 -70 -33z"/>
<path d="M1945 3769 c-37 -22 -137 -49 -183 -49 -22 0 -32 -4 -29 -12 10 -32
193 9 232 52 25 27 16 31 -20 9z"/>
<path d="M2090 3100 l-25 -8 25 0 c14 0 39 4 55 8 l30 8 -30 0 c-16 0 -41 -4
-55 -8z"/>
<path d="M2122 3029 c-75 -9 -161 -36 -181 -55 -22 -21 -6 -27 26 -11 38 19
153 48 222 54 72 7 102 23 41 21 -25 0 -74 -4 -108 -9z"/>
<path d="M2090 2960 l-25 -8 25 0 c14 0 36 4 50 8 l25 8 -25 0 c-14 0 -36 -4
-50 -8z"/>
<path d="M1455 3619 c-49 -4 -98 -10 -107 -14 -18 -7 -25 -25 -10 -25 18 0
217 31 220 35 9 9 -21 10 -103 4z"/>
<path d="M1431 3489 c-46 -22 -81 -42 -78 -45 7 -8 177 66 177 77 0 13 -8 11
-99 -32z"/>
<path d="M1315 3501 c-35 -15 -78 -51 -62 -51 7 0 107 62 107 66 0 6 -1 5 -45
-15z"/>
<path d="M1740 2816 c-51 -15 -165 -70 -175 -86 -11 -18 20 -11 88 20 36 16
96 37 133 46 38 9 73 21 79 25 14 13 -73 9 -125 -5z"/>
<path d="M1710 2723 c-26 -10 -81 -45 -77 -50 6 -5 117 44 117 51 0 7 -19 6
-40 -1z"/>
<path d="M1792 2701 c-43 -32 -59 -51 -43 -51 5 0 13 5 17 11 3 6 27 24 52 40
25 16 39 29 30 29 -8 0 -33 -13 -56 -29z"/>
<path d="M880 3093 c-52 -19 -82 -34 -78 -38 2 -3 36 6 74 19 40 14 58 24 44
24 -14 0 -32 -2 -40 -5z"/>
<path d="M1013 2641 c-122 -16 -170 -31 -97 -31 47 0 283 36 291 44 10 9 -61
5 -194 -13z"/>
<path d="M2556 2714 c-9 -44 8 -129 34 -172 28 -46 44 -40 19 8 -14 26 -23 67
-26 120 -6 85 -17 102 -27 44z"/>
<path d="M2178 2514 c-6 -6 -4 -32 8 -91 4 -24 30 -53 45 -53 6 0 1 12 -10 26
-12 15 -21 41 -22 58 -1 37 -12 70 -21 60z"/>
<path d="M1816 2288 c-20 -46 42 -162 97 -181 25 -9 21 -1 -22 42 -28 28 -42
54 -53 97 -11 42 -17 54 -22 42z"/>
<path d="M2350 3767 c-53 -16 -13 -19 50 -3 48 12 51 14 20 14 -19 0 -51 -5
-70 -11z"/>
<path d="M2500 3739 c-107 -18 -166 -39 -110 -39 38 0 254 42 265 51 13 13
-23 10 -155 -12z"/>
<path d="M4475 3403 c-60 -13 -177 -57 -222 -83 -86 -49 -61 -52 40 -5 119 55
187 75 295 84 l87 8 -90 0 c-49 1 -99 -1 -110 -4z"/>
<path d="M2540 3140 c-13 -9 -13 -10 0 -10 8 0 22 5 30 10 13 9 13 10 0 10 -8
0 -22 -5 -30 -10z"/>
<path d="M4412 2873 c-19 -24 -32 -47 -29 -49 7 -7 69 74 65 85 -1 5 -18 -11
-36 -36z"/>
<path d="M3758 2795 c23 -20 64 -61 93 -93 28 -31 46 -46 39 -32 -17 35 -141
160 -159 160 -8 0 4 -16 27 -35z"/>
<path d="M4246 2666 c-107 -162 -233 -424 -223 -465 3 -10 11 1 22 29 28 69
161 325 217 418 27 45 48 87 46 93 -2 7 -30 -28 -62 -75z"/>
<path d="M3025 2651 c-11 -19 18 -23 113 -16 142 11 148 24 10 25 -64 0 -119
-4 -123 -9z"/>
<path d="M3030 2489 c-147 -30 -260 -69 -385 -132 -177 -88 -184 -119 -9 -36
158 75 266 112 423 147 69 15 126 33 129 40 5 16 2 15 -158 -19z"/>
<path d="M751 2175 c-1 -27 36 -245 49 -296 16 -58 121 -329 165 -424 61 -132
91 -215 120 -325 32 -119 51 -154 41 -74 -15 123 -62 259 -178 519 -103 232
-137 328 -159 455 -12 69 -25 134 -30 145 l-8 20 0 -20z"/>
<path d="M2857 1724 c-16 -16 162 -444 185 -444 14 0 9 15 -43 131 -28 63 -69
160 -91 217 -22 56 -41 102 -42 102 -1 0 -5 -3 -9 -6z"/>
<path d="M2050 1592 c0 -11 241 -315 294 -370 65 -69 254 -214 273 -210 13 2
-10 27 -77 83 -155 131 -221 198 -351 355 -114 138 -139 164 -139 142z"/>
<path d="M2570 1572 c0 -13 168 -380 196 -429 20 -34 34 -42 34 -20 0 10 -215
444 -226 456 -2 2 -4 -1 -4 -7z"/>
<path d="M2822 1423 c30 -83 66 -163 72 -163 6 0 -27 92 -63 173 -28 66 -35
59 -9 -10z"/>
<path d="M2273 820 c0 -30 2 -43 4 -27 2 15 2 39 0 55 -2 15 -4 2 -4 -28z"/>
<path d="M2300 375 l0 -315 21 0 22 0 -7 273 c-7 286 -12 357 -27 357 -5 0 -9
-136 -9 -315z"/>
<path d="M1739 615 c-6 -6 -296 -80 -371 -95 -72 -14 -79 -35 -9 -27 63 7 401
108 401 119 0 9 -14 11 -21 3z"/>
<path d="M1977 498 c4 -29 7 -140 7 -245 -1 -151 1 -193 11 -193 29 0 28 359
-1 468 -12 44 -25 22 -17 -30z"/>
</g>
</svg>
